HIERARCHY
ROOT HipCenter
{
    OFFSET 0.0 0.0 -0.0
    CHANNELS 6 Xposition Yposition Zposition Zrotation Xrotation Yrotation
    JOINT Spine
    {
        OFFSET 0.0 30.748775482177734 0.0
        CHANNELS 3 Zrotation Xrotation Yrotation
        JOINT ShoulderCenter
        {
            OFFSET 0.0 22.544414520263672 0.0
            CHANNELS 3 Zrotation Xrotation Yrotation
            JOINT LeftShoulder
            {
                OFFSET 15.994600296020508 0.0 0.0
                CHANNELS 3 Zrotation Xrotation Yrotation
                JOINT LeftElbow
                {
                    OFFSET 23.11345863342285 0.0 0.0
                    CHANNELS 3 Zrotation Xrotation Yrotation
                    JOINT LeftWrist
                    {
                        OFFSET 19.85919952392578 0.0 0.0
                        CHANNELS 3 Zrotation Xrotation Yrotation
                        JOINT LeftHand
                        {
                            OFFSET 5.169515609741211 0.0 0.0
                            CHANNELS 3 Zrotation Xrotation Yrotation
                            End Site
                            {
                                OFFSET 2.0678064823150635 0.0 0.0
                            }
                        }
                    }
                }
            }
            JOINT RightShoulder
            {
                OFFSET -15.994600296020508 0.0 0.0
                CHANNELS 3 Zrotation Xrotation Yrotation
                JOINT RightElbow
                {
                    OFFSET -23.11345863342285 0.0 0.0
                    CHANNELS 3 Zrotation Xrotation Yrotation
                    JOINT RightWrist
                    {
                        OFFSET -19.85919952392578 0.0 0.0
                        CHANNELS 3 Zrotation Xrotation Yrotation
                        JOINT RightHand
                        {
                            OFFSET -5.169515609741211 0.0 0.0
                            CHANNELS 3 Zrotation Xrotation Yrotation
                            End Site
                            {
                                OFFSET -2.0678064823150635 0.0 0.0
                            }
                        }
                    }
                }
            }
            End Site
            {
                OFFSET 0.0 9.017765998840332 0.0
            }
        }
    }
    JOINT LeftHip
    {
        OFFSET 7.825013160705566 0.0 0.0
        CHANNELS 3 Zrotation Xrotation Yrotation
        JOINT LeftKnee
        {
            OFFSET 0.0 -30.836036682128906 0.0
            CHANNELS 3 Zrotation Xrotation Yrotation
            JOINT LeftAnkle
            {
                OFFSET 0.0 -30.337039947509766 0.0
                CHANNELS 3 Zrotation Xrotation Yrotation
                JOINT LeftFoot
                {
                    OFFSET 0.0 -11.05637264251709 0.0
                    CHANNELS 3 Zrotation Xrotation Yrotation
                    End Site
                    {
                        OFFSET 0.0 0.0 4.422549247741699
                    }
                }
            }
        }
    }
    JOINT RightHip
    {
        OFFSET -7.825013160705566 0.0 0.0
        CHANNELS 3 Zrotation Xrotation Yrotation
        JOINT RightKnee
        {
            OFFSET 0.0 -30.836036682128906 0.0
            CHANNELS 3 Zrotation Xrotation Yrotation
            JOINT RightAnkle
            {
                OFFSET 0.0 -30.337039947509766 0.0
                CHANNELS 3 Zrotation Xrotation Yrotation
                JOINT RightFoot
                {
                    OFFSET 0.0 -11.05637264251709 0.0
                    CHANNELS 3 Zrotation Xrotation Yrotation
                    End Site
                    {
                        OFFSET 0.0 0.0 4.422549247741699
                    }
                }
            }
        }
    }
}
MOTION
Frames: 5
Frame Time: 0.03333333333333333
-3.2671000957489014 -11.431699752807617 -263.55902099609375 -6.864357307288101 2.155420097602854 168.61451391601906 2.005293537933612 -2.0332870362672217 0.10892753272549918 6.690471339933883e-07 -1.316509457707875e-07 7.474764942148419 -78.43668087373183 -41.99634964490359 -14.965904666397314 6.1562056349475185e-06 -9.156291157007461e-07 37.05043246581542 179.99999996300423 -80.63283848416413 -161.69155630262063 0.0 0.0 3.1805546814635168e-15 -20.044236597254127 25.603557264590904 -65.08546498356529 -5.510977523959873e-08 2.1277187908175813e-06 -122.73192576960348 -3.840187109924953e-06 33.065493672065664 -3.3413910533111872 0.0 0.0 1.5902773407317584e-15 -0.476337322561941 -6.385031978370512 28.996570107407468 -1.0275799888752746 3.8773110036609926 0.37507814631786995 25.95079449722016 49.60499522148547 -15.841053665311705 -1.5902773407317584e-15 6.3611093629270335e-15 1.5902773407317584e-15 -7.27171541556395 -13.38771339786589 -24.735330490715896 -1.5944480807928108 7.674760109780207 0.006416965226402116 -46.44955423668689 31.904543138233304 29.112269140298483 3.1805546814635164e-15 4.4139062980501586e-32 1.5902773407317582e-15
-3.2680001258850098 -11.432499885559082 -263.5669860839844 -7.444228017727302 2.6156369633577743 168.74743028420718 2.186427346469928 -2.5304765790366037 0.1712380827934333 4.2512344494800693e-07 2.1318375283380897e-07 7.4961018945924724 -78.34862236630728 -43.11825748316543 -14.512931465076363 -1.784409384612723e-06 -3.571044644160045e-06 38.552575556192615 -2.7262391529835213e-06 -76.86531925953675 13.09046921997988 -6.3611093629270335e-15 0.0 0.0 -20.91333294042834 26.05734650428232 -64.48404246734098 1.9763618627629363e-06 2.416617027738496e-06 -123.94853969729249 1.1355917608779227e-06 -6.894897111945618 -48.127274395107385 1.3241718894150476e-31 3.1805546814635168e-15 -4.770832022195275e-15 -1.506846902275578 -5.985553205612539 28.901297033708694 -0.362998264094136 3.439735967609814 0.3121330032658702 25.306621712483146 49.99604933066905 -15.68147763507212 1.5902773407317584e-15 2.2069531490250793e-32 1.5902773407317584e-15 -7.806576353977725 -13.069177768539413 -24.655583825341193 -1.901352815869116 7.782149303162009 0.037186850088169784 -46.12775361074313 31.840374220039635 28.985787402648004 -1.5902773407317588e-15 6.361109362927035e-15 7.951386703658796e-16
-3.207200050354004 -11.42609977722168 -263.5701904296875 -7.86266770107042 2.85304009981277 168.9300471795272 1.5778207650988558 -2.366550131331824 0.15304007830439426 -9.355025502297614e-08 -1.8414490251238587e-07 7.487984285999994 -78.10579812567305 -43.89462941612404 -15.003219116152646 6.836778684750636e-07 2.0961865706389455e-08 38.933300799364744 5.428488476448657e-06 -67.85903828110088 13.33804303888835 0.0 0.0 0.0 -20.68610493686202 24.458777782231483 -64.47151687371098 7.826598493461999e-07 1.1606456491027233e-06 -124.7746927883861 1.4770185584951564e-07 -5.6941905146221075 -48.854642210392285 -4.965644585306429e-32 -1.5902773407317582e-15 -3.578124016646456e-15 -2.061505807677389 -5.725687597072325 28.89522547130858 -0.1183566243482917 3.2573758931142116 0.2871767960621141 24.821906496682963 49.789837781854004 -15.364385749059135 7.951386703658792e-16 -1.1034765745125397e-32 -1.5902773407317584e-15 -7.957274831095071 -12.925868737468303 -24.604554833764105 -2.520078654235678 7.90231910038885 0.08093116957338492 -46.1220252828202 31.72412109572019 29.165697084102586 1.5902773407317582e-15 2.2069531490250793e-32 1.5902773407317582e-15
-3.0176000595092773 -11.440500259399414 -263.9668884277344 -7.924406809282735 3.383909870359604 171.41484313717487 1.2248683842732901 -2.1103533009600888 0.12830757653571817 1.2014947841885618e-06 -4.035403986690335e-07 5.163239903041818 -77.59298265045439 -45.56597430316347 -14.36619764799083 8.933060853150933e-07 1.606294410321147e-06 37.50982141432557 -1.3695176198088305e-06 -62.73273711474856 36.57008543509336 6.361109362927035e-15 -7.951386703658793e-15 6.361109362927035e-15 -20.538055489078257 24.76671588594733 -64.55686103533102 1.3108673656104114e-06 1.1126854056672907e-07 -124.91421287958187 8.217513433692729e-08 30.925268935120283 -3.302392306475131 8.276074308844047e-33 -1.5902773407317584e-15 5.963540027744094e-16 -2.176762208183301 -4.916866755225187 28.05756477168229 -0.34960808910979774 3.278203881359301 0.29412881680185304 26.283740039735598 48.86849824455881 -16.255570272040988 0.0 0.0 7.951386703658792e-16 -8.278006072781732 -10.964525406910948 -24.843569227901398 -2.193179542917363 7.0427915289018985 0.10347239402502723 -44.786502204327455 33.050961196152045 29.13508476373696 3.1805546814635168e-15 6.620859447075238e-32 2.3854160110976376e-15
-3.027700185775757 -11.43850040435791 -263.9768981933594 -8.01755611204297 3.450939113616766 171.43439325000776 1.1976728393900091 -2.120296616490658 0.1313327900714955 6.836541443630771e-07 -3.3003755189646126e-07 5.195066664320573 -77.48505807113384 -45.76227240387384 -14.072790573513135 -5.073611062600481e-06 4.081477110247479e-07 37.311277440131825 -179.99999608639507 -45.079749451382995 -167.36396149681508 0.0 0.0 -1.987846675914698e-16 -20.596805641763115 24.817838767683057 -64.55335444961888 7.563934602081647e-07 2.793431332712758e-06 -124.93383171604599 -1.7113067296260638e-06 -7.733103152392673 -48.997839410900866 3.1805546814635168e-15 -3.1805546814635168e-15 -5.565970692561154e-15 -2.2883246639162644 -4.805093633603489 28.09270707774358 -0.35083906089439154 3.1838005019511493 0.2857732588231775 26.620322022990486 49.12616796584912 -16.5837317594148 0.0 0.0 7.951386703658792e-16 -8.321784118796664 -11.038575810727226 -24.847816719816525 -2.4570783737025157 7.248535464697655 0.12613536411045834 -44.63084965965827 33.03676550666763 29.12450096131908 0.0 0.0 7.951386703658794e-16
